<svg width="526" height="526" viewBox="0 0 526 526" fill="none" xmlns="http://www.w3.org/2000/svg">
<path fill-rule="evenodd" clip-rule="evenodd" d="M91.4453 464.469C85.1088 462.618 79.4494 458.96 75.1597 453.942C70.8701 448.924 68.1364 442.765 67.2931 436.218C66.1754 425.545 65.8466 426.246 106.962 354.272C127.937 317.539 144.9 287.053 144.681 286.505C142.699 283.733 140.578 281.063 138.325 278.506C127.657 265.619 119.106 251.12 112.989 235.549C107.532 221.763 102.908 196.998 102.908 181.524C102.908 123.489 135.87 69.6179 187.046 43.9973C220.439 27.0323 258.908 22.9521 295.117 32.5348C349.01 46.43 391.901 89.6936 404.941 143.28C409.242 160.431 410.555 178.195 408.821 195.792C405.665 226.717 394.838 252.732 374.477 278.308C372.123 281.196 369.85 284.148 367.661 287.163C367.661 287.316 384.8 317.517 405.752 354.293C435.91 407.2 444.063 422.147 444.873 426.071C447.942 440.886 439.964 456.206 425.718 462.891L420.699 465.236L348.418 432.601C348.418 432.601 319.028 482.046 310.217 477.64C303.83 474.391 281.859 453.246 277.627 447.461C275.699 444.7 270.285 435.626 265.573 427.32C260.839 418.991 256.697 412.197 256.324 412.197C255.952 412.197 251.568 419.364 246.593 428.153C233.684 450.858 229.696 455.658 219.307 460.94C210.299 465.521 166.247 432.733 166.247 432.733C166.247 432.733 94.404 465.279 91.4453 464.469ZM224.677 378.402C238.331 354.491 249.355 334.81 249.18 334.634C245.54 333.896 241.869 333.326 238.177 332.925C220.415 330.764 203.157 325.568 187.155 317.561L180.252 314.098L150.62 365.997C140.397 383.994 130.103 401.951 119.74 419.868L118.49 421.841L175.605 388.966L199.845 421.841L224.677 378.402ZM392.909 419.868C382.545 401.951 372.252 383.994 362.028 365.997L332.397 314.098L324.836 317.868C320.282 320.106 315.647 322.175 310.941 324.07L304.629 326.525L293.122 346.688C284.531 361.745 281.792 367.268 282.339 368.386C282.734 369.219 289.747 381.602 297.922 395.869L312.782 421.841L337.032 388.965L394.158 421.841L392.909 419.868ZM282.624 286.987C304.541 281.223 320.825 271.69 335.882 255.778C349.799 241.094 359.114 223.363 363.869 202.542C365.952 193.381 365.952 167.805 363.869 159.279C359.815 142.754 353.919 129.056 346.007 117.791C340.419 109.791 325.603 95.2165 318.086 90.3072C304.936 81.7158 290.405 75.6669 276.049 72.8177C267.107 71.0644 242.758 71.2835 234.846 73.2341C218.343 77.2668 204.645 83.1624 193.358 91.0743C185.314 96.7069 170.784 111.501 165.787 119.15C157.713 131.26 151.954 144.762 148.801 158.972C147.749 163.597 147.311 169.777 147.267 180.757C147.201 194.872 147.399 196.866 149.678 205.742C155.508 228.295 165.239 245.127 181.282 260.293C194.641 273.081 211.064 282.22 228.972 286.834C240.018 289.705 245.519 290.253 259.393 289.924C270.57 289.661 274.055 289.223 282.624 286.987ZM244.862 222.991C226.036 218.081 212.338 199.912 212.535 180.144C212.754 159.169 228.709 140.847 249.53 137.647C263.842 135.456 276.795 139.707 287.073 150.008C294.174 157.109 297.988 164.473 299.434 173.963C300.415 180.196 300.035 186.567 298.32 192.639C296.606 198.711 293.597 204.34 289.501 209.14C285.406 213.939 280.32 217.796 274.593 220.444C268.866 223.092 262.634 224.469 256.324 224.481C253.19 224.481 248.04 223.802 244.862 222.991Z" fill="white"/>
</svg>
